<?xml version="1.0" encoding="utf-8"?>
<svg version="1.1" id="stdio-logo" xmlns="http://www.w3.org/2000/svg" xmlns:xlink="http://www.w3.org/1999/xlink" x="0px" y="0px"
	 viewBox="0 0 1280 1280" style="enable-background:new 0 0 1280 1280;" xml:space="preserve">
<style type="text/css">
	.st0{fill:#FF9900;}
	.st1{fill:#FFFFFF;}
</style>
<g id="background">
	<path class="st0" d="M640,0C286.5,0,0,286.5,0,640s286.5,640,640,640s640-286.5,640-640S993.5,0,640,0z M880.4,880.4
		c-132.8,132.8-348.1,132.8-480.8,0s-132.8-348.1,0-480.8s348.1-132.8,480.8,0C944.2,463.3,980,549.8,980,640
		C980.2,730.2,944.4,816.8,880.4,880.4z"/>
</g>
<g id="light">
	<path class="st1" d="M868.2,1184.3L868.2,1184.3c-2.5,1.1-5,2.1-7.5,3.1c50.9-21.5,74.7-80.1,53.2-131c-2-4.8-4.5-9.5-7.2-14
		l-3.2-4.8c-26-36.8-73.4-51.7-115.8-36.3c-199.6,81.4-427.4-14.4-508.8-214c-19.2-47-29-97.2-28.9-147.9
		c-1.7-46-34.7-84.9-79.8-94.2l11.5,2.3l0,0l-24.6-5l0,0l12.5,2.5c-54.2-10.8-106.8,24.4-117.6,78.6c-1.2,6-1.8,12.1-1.9,18.2
		c0-3,0-6,0.1-9c0,0.2-0.1,0.5-0.1,0.7c-3.9,325.8,257.1,593,582.8,596.9c80.7,1,160.7-14.6,235.1-45.8
		C867.9,1184.5,868,1184.4,868.2,1184.3z"/>
	<circle class="st1" cx="247" cy="346" r="100"/>
</g>
</svg>